HIERARCHY
ROOT Hips
{
	OFFSET 0.0000 0.0000 0.0000
	CHANNELS 6 Xposition Yposition Zposition Zrotation Xrotation Yrotation
	JOINT Ab
	{
		OFFSET -0.0000 8.1305 -0.0000
		CHANNELS 3 Zrotation Xrotation Yrotation
		JOINT Chest
		{
			OFFSET -0.0000 26.2902 -0.0000
			CHANNELS 3 Zrotation Xrotation Yrotation
			JOINT Neck
			{
				OFFSET -0.0000 26.2902 0.0000
				CHANNELS 3 Zrotation Xrotation Yrotation
				JOINT Head
				{
					OFFSET -0.0000 10.8167 0.0000
					CHANNELS 3 Zrotation Xrotation Yrotation
					End Site
					{
						OFFSET -0.0000 16.7167 0.0000
					}
				}
			}
			JOINT LeftCollar
			{
				OFFSET -0.0000 26.2902 0.0000
				CHANNELS 3 Zrotation Xrotation Yrotation
				JOINT LeftShoulder
				{
					OFFSET 19.6667 -0.0000 0.0000
					CHANNELS 3 Zrotation Xrotation Yrotation
					JOINT LeftElbow
					{
						OFFSET 27.2190 0.0000 0.0000
						CHANNELS 3 Zrotation Xrotation Yrotation
						JOINT LeftWrist
						{
							OFFSET 30.7431 0.0000 0.0000
							CHANNELS 3 Zrotation Xrotation Yrotation
							End Site
							{
								OFFSET 0.0000 -14.7500 0.0000
							}
						}
					}
				}
			}
			JOINT RightCollar
			{
				OFFSET -0.0000 26.2902 0.0000
				CHANNELS 3 Zrotation Xrotation Yrotation
				JOINT RightShoulder
				{
					OFFSET -19.6667 0.0000 0.0000
					CHANNELS 3 Zrotation Xrotation Yrotation
					JOINT RightElbow
					{
						OFFSET -27.2190 0.0000 0.0000
						CHANNELS 3 Zrotation Xrotation Yrotation
						JOINT RightWrist
						{
							OFFSET -30.7431 0.0000 0.0000
							CHANNELS 3 Zrotation Xrotation Yrotation
							End Site
							{
								OFFSET -0.0000 -14.7500 0.0000
							}
						}
					}
				}
			}
		}
	}
	JOINT LeftHip
	{
		OFFSET 11.8000 0.0000 0.0000
		CHANNELS 3 Zrotation Xrotation Yrotation
		JOINT LeftKnee
		{
			OFFSET -0.0000 -39.7832 0.0000
			CHANNELS 3 Zrotation Xrotation Yrotation
			JOINT LeftAnkle
			{
				OFFSET -0.0000 -41.7317 0.0000
				CHANNELS 3 Zrotation Xrotation Yrotation
				End Site
				{
					OFFSET -0.0000 -4.9167 16.7167
				}
			}
		}
	}
	JOINT RightHip
	{
		OFFSET -11.8000 0.0000 0.0000
		CHANNELS 3 Zrotation Xrotation Yrotation
		JOINT RightKnee
		{
			OFFSET -0.0000 -39.7832 0.0000
			CHANNELS 3 Zrotation Xrotation Yrotation
			JOINT RightAnkle
			{
				OFFSET -0.0000 -41.7317 0.0000
				CHANNELS 3 Zrotation Xrotation Yrotation
				End Site
				{
					OFFSET -0.0000 -4.9167 16.7167
				}
			}
		}
	}
}
MOTION
Frames: 9
Frame Time: 0.010000
-18.6467 96.8552 175.0126 358.1793 356.8383 181.4296 357.1510 348.0574 0.0163 2.5946 10.8165 0.0672 356.2794 358.1152 359.9589 2.2747 5.1815 359.9161 339.9817 357.4114 14.6625 320.1078 60.4548 337.5736 8.9580 357.3028 326.3624 89.3420 356.1162 347.6864 26.4389 355.8355 342.4771 45.6867 49.4342 5.0074 341.0041 354.5727 31.6658 270.5799 354.1252 10.5535 355.7177 2.2684 358.9452 357.8815 6.2871 4.7127 353.9427 352.1598 13.2317 357.6612 4.6862 11.3523 6.6694 6.8513 11.9672 348.1176 344.4166 309.4993 
-18.6811 96.8505 175.0033 358.1868 356.8047 181.4219 357.1417 348.0751 0.0188 2.5718 10.8314 0.0693 356.3067 358.1353 359.9681 2.2566 5.2539 359.9248 340.0068 357.4158 14.6534 320.1016 60.4818 337.5329 9.0314 357.2920 326.4089 89.3963 356.0977 347.7463 26.4270 355.8547 342.4583 45.6925 49.4898 5.0601 341.0017 354.5650 31.6819 270.6671 354.1386 10.2937 355.7019 2.2386 358.9246 357.8777 6.2941 4.7350 354.0055 352.1528 13.2488 357.6421 4.6259 11.3195 6.6848 6.9102 11.9745 348.0957 344.4075 309.5260 
-18.7195 96.8456 174.9931 358.1941 356.7705 181.4164 357.1260 348.0888 0.0188 2.5667 10.8641 0.0685 356.3278 358.1473 359.9710 2.2179 5.3219 359.9271 340.0250 357.3948 14.6447 320.0132 60.4746 337.6109 9.0678 357.2444 326.4036 89.4302 356.0956 347.7132 26.3997 355.8337 342.4613 45.7150 49.5495 5.0755 340.9472 354.5318 31.6720 270.8717 354.0962 10.3383 355.6800 2.2058 358.8990 357.8814 6.3089 4.7433 354.0295 352.1374 13.2529 357.6174 4.5844 11.3723 6.7063 6.9269 11.9172 348.1026 344.3937 309.5328 
-18.7548 96.8406 174.9825 358.2018 356.7340 181.4016 357.1094 348.0906 0.0224 2.5518 10.9171 0.0802 356.4320 358.0988 359.9554 2.0459 5.4676 359.9200 340.0386 357.4028 14.6300 319.9842 60.4393 337.6436 9.0259 357.2537 326.3894 89.5505 356.0790 347.7562 26.3997 355.8619 342.4862 45.7269 49.5189 5.0589 340.9982 354.5487 31.7382 270.8942 354.1234 10.3671 355.6709 2.1723 358.8692 357.8614 6.3195 4.7626 353.7716 352.1007 13.2748 357.6003 4.5214 11.3743 6.7204 6.9875 11.9091 348.1148 344.3559 309.5468 
-18.7927 96.8359 174.9736 358.2063 356.6917 181.3878 357.0787 348.0983 0.0376 2.5629 10.9505 0.0899 356.4521 358.1132 359.9527 2.0065 5.5325 359.9149 340.0361 357.3945 14.6302 320.0603 60.4698 337.5650 9.0547 357.2705 326.4102 89.5394 356.0753 347.7951 26.3748 355.8610 342.5103 45.7628 49.5136 5.0397 340.9486 354.5320 31.7735 270.9221 354.1413 10.3211 355.6513 2.1322 358.8451 357.8556 6.3305 4.7816 354.0106 352.0988 13.2861 357.5718 4.4478 11.3680 6.7467 7.0540 11.9267 348.1244 344.3126 309.5169 
-18.8315 96.8335 174.9613 358.2143 356.6520 181.3672 357.0530 348.0975 0.0491 2.5609 10.9976 0.1035 356.4799 358.1279 359.9462 1.9893 5.5966 359.9079 340.0193 357.4062 14.6353 320.1976 60.4510 337.4385 8.9861 357.2876 326.4189 89.5520 356.0727 347.7395 26.3730 355.8866 342.5371 45.7809 49.4385 5.0246 341.0006 354.5487 31.8229 270.9401 354.1278 10.3873 355.5550 1.9204 358.8718 358.0030 6.6786 4.9075 353.9819 351.9285 13.1028 357.5464 4.3805 11.3304 6.7627 7.1190 11.9732 348.0779 344.3078 309.5105 
-18.8735 96.8277 174.9573 358.2208 356.5922 181.3571 357.0437 348.0975 0.0492 2.5295 11.0301 0.1104 356.5055 358.1265 359.9307 1.9830 5.6690 359.8891 340.0388 357.4024 14.6188 320.1685 60.4333 337.4493 9.0276 357.2725 326.4276 89.4464 356.0616 347.6567 26.3670 355.8660 342.5374 45.7779 49.4766 5.0642 340.9553 354.5273 31.8116 271.0268 354.1385 10.3891 355.5194 1.8293 358.8351 358.0246 6.7502 4.9200 353.9825 351.8773 13.1084 357.5156 4.2757 11.2719 6.7919 7.2114 12.0224 348.0183 344.3103 309.5055 
-18.9133 96.8228 174.9544 358.2283 356.5401 181.3443 357.0143 348.1090 0.0544 2.5305 11.0653 0.1164 356.5569 358.1045 359.9186 1.9085 5.7766 359.8788 340.0397 357.4211 14.6040 320.1485 60.3842 337.4761 9.0117 357.2753 326.3911 89.3472 356.0750 347.5579 26.3556 355.8771 342.5518 45.7597 49.4535 5.0875 341.0124 354.5410 31.8698 271.0451 354.1562 10.3489 355.5027 1.7788 358.7905 358.0164 6.7523 4.9484 354.0590 351.8705 13.1073 357.4853 4.1753 11.2192 6.8230 7.3065 12.0650 348.1051 344.1996 309.5157 
-18.9529 96.8182 174.9499 358.2366 356.4867 181.3316 356.9955 348.1153 0.0632 2.5138 11.1125 0.1246 356.5972 358.0770 359.8947 1.8602 5.8830 359.8551 340.0667 357.4117 14.6047 320.1807 60.4334 337.3832 9.1190 357.2432 326.5101 88.9540 355.9792 347.3608 26.3443 355.9013 342.5427 45.7278 49.4887 5.1707 340.9925 354.5400 31.8813 271.0454 354.1615 10.2757 355.4851 1.7254 358.7438 358.0093 6.7622 4.9736 354.0481 351.8543 13.1176 357.4585 4.0774 11.1714 6.8516 7.3933 12.0987 348.1190 344.1545 309.5168 
